<svg version="1.1" id="Layer_1" xmlns="http://www.w3.org/2000/svg" xmlns:xlink="http://www.w3.org/1999/xlink" x="0px" y="0px"
	 width="100%" viewBox="0 0 1024 848" enable-background="new 0 0 1024 848" xml:space="preserve">
<path fill="#C89E2F" 
	d="
M515.956665,407.263794 
	C521.682190,407.190094 527.002625,407.206360 532.319458,407.078674 
	C536.856934,406.969696 539.009766,408.976929 539.175598,413.603882 
	C539.555725,424.210388 539.743408,423.948730 549.826660,427.721893 
	C570.369202,435.408844 583.727478,449.416199 587.568665,471.618500 
	C588.341370,476.084991 586.670227,478.386963 582.458740,478.990692 
	C571.585510,480.549316 560.685425,481.922089 549.817627,483.516052 
	C545.778381,484.108459 543.955200,482.251434 543.173706,478.603638 
	C542.456299,475.254974 542.047180,471.746674 538.290649,469.218201 
	C538.290649,475.260773 538.858948,481.370728 538.152161,487.329468 
	C537.188477,495.452972 539.577576,500.083191 547.885315,502.603119 
	C555.284241,504.847412 562.448242,508.184631 569.082275,512.521179 
	C588.227051,525.035767 594.490540,543.295410 591.571899,564.849854 
	C588.067993,590.726562 572.331238,606.416931 544.769836,612.821594 
	C540.502380,613.813293 538.745239,615.468323 539.084595,619.788818 
	C539.344604,623.099304 539.108398,626.448120 539.109558,629.779846 
	C539.110840,633.598389 537.234253,635.860962 533.413574,635.910950 
	C526.420593,636.002625 519.423218,635.892639 512.429749,635.759644 
	C508.750000,635.689636 506.411591,633.359070 507.079163,629.990845 
	C509.508911,617.731689 503.696381,614.013916 492.450562,610.709595 
	C468.944275,603.802917 455.803986,586.452026 451.920410,562.234436 
	C450.442352,553.017395 451.942566,551.252563 461.054077,550.681824 
	C470.020905,550.120117 478.977997,549.375977 487.928314,548.586243 
	C494.998230,547.962463 496.022614,548.627563 497.456787,555.395691 
	C498.218414,558.989868 499.230743,562.511902 500.965790,565.775085 
	C502.126587,567.958252 503.463715,570.006287 505.787964,571.211365 
	C507.518311,569.447998 506.931274,567.521912 506.951202,565.787842 
	C507.033630,558.625305 506.698700,551.443542 507.117676,544.304077 
	C507.408173,539.353943 505.799957,536.755737 501.003235,535.149475 
	C491.813232,532.071899 483.212128,527.673523 475.438965,521.769958 
	C461.554901,511.225189 455.467438,496.807404 456.435059,479.893616 
	C458.084869,451.056061 473.605896,433.208069 501.677673,426.698914 
	C505.672668,425.772552 507.524628,424.070099 507.015015,419.955872 
	C506.852448,418.643402 506.982117,417.293610 506.991852,415.960999 
	C507.048553,408.192139 507.902802,407.328278 515.956665,407.263794 
M456.885986,558.606812 
	C459.241974,584.095703 476.141998,602.798889 501.347504,607.812317 
	C512.322571,609.995239 512.322571,609.995300 512.324951,621.474243 
	C512.326721,630.031067 512.326782,630.039185 520.869446,629.979065 
	C534.097229,629.885986 533.709900,630.973328 533.658691,617.166748 
	C533.629517,609.288330 533.689453,609.421448 541.448547,607.901489 
	C563.846069,603.513794 583.460999,590.855896 586.388916,562.753296 
	C588.252014,544.871582 583.903076,529.348572 568.379517,518.440002 
	C559.282166,512.047241 549.024353,508.037048 538.659546,504.410889 
	C534.616821,502.996521 533.113647,500.954559 533.193359,496.856171 
	C533.410156,485.715149 533.376465,474.569366 533.492493,463.425995 
	C533.509338,461.812195 533.173706,460.071198 534.799133,458.245636 
	C541.302612,461.008850 545.332764,466.078278 547.122803,472.756287 
	C548.290833,477.113770 550.659851,478.293762 554.739807,477.661316 
	C561.480042,476.616364 568.228699,475.606903 574.996338,474.763184 
	C582.748474,473.796814 583.644104,472.792175 581.134705,465.259796 
	C574.688538,445.910858 560.511597,435.187622 541.266113,430.525909 
	C533.753540,428.706146 533.693726,428.953125 533.680298,420.842804 
	C533.666321,412.373566 533.666321,412.373566 525.138062,412.360138 
	C524.804810,412.359619 524.471558,412.355286 524.138367,412.360413 
	C510.626709,412.568237 512.350769,410.564697 512.393494,423.901398 
	C512.407349,428.214569 511.129852,429.850677 506.684174,430.664062 
	C484.658661,434.693573 462.373322,449.774841 461.593475,477.796173 
	C461.118713,494.855652 466.120667,509.239594 480.917053,519.192261 
	C489.296844,524.828918 498.590332,528.478943 507.911957,532.062073 
	C511.200348,533.326111 512.472900,535.152649 512.415527,538.724182 
	C512.220032,550.883789 512.358948,563.048401 512.306763,575.210815 
	C512.300049,576.775818 512.794983,578.570557 510.969940,579.959045 
	C510.138977,579.724609 509.170715,579.557434 508.288422,579.186035 
	C499.883850,575.648193 495.293488,568.925049 493.426056,560.363464 
	C492.318939,555.287598 489.820648,553.462830 484.736511,554.209473 
	C479.475891,554.982178 474.088257,554.954651 468.862244,555.877625 
	C464.907654,556.576172 460.493774,554.672791 456.885986,558.606812 
z"/>
<path fill="#C89E2F" 
	d="
M455.783569,441.785217 
	C450.171234,449.173950 443.141724,451.172089 434.217926,451.146149 
	C349.911285,450.901062 265.603333,451.044739 181.296036,451.218384 
	C176.479874,451.228302 172.658676,450.009735 169.047501,446.867096 
	C163.900452,442.387817 158.379303,438.341187 153.111526,433.996338 
	C151.090958,432.329773 148.638199,430.586761 149.757263,427.377472 
	C150.930786,424.012024 154.008286,424.700897 156.569901,424.700714 
	C216.218887,424.696136 275.867859,424.742249 335.516846,424.751007 
	C377.004547,424.757080 418.492218,424.706390 459.979889,424.737335 
	C462.816895,424.739471 466.499786,423.609344 467.661530,427.540955 
	C468.702301,431.063232 465.591766,432.824371 463.441193,434.825928 
	C461.002960,437.095184 458.509125,439.304657 455.783569,441.785217 
M379.499939,445.646362 
	C398.831268,445.644836 418.162567,445.644226 437.493896,445.641357 
	C444.528595,445.640289 455.291229,437.891876 457.929474,430.887054 
	C456.162384,429.563507 454.096802,430.077026 452.166077,430.077698 
	C358.009277,430.110870 263.852509,430.173096 169.695709,430.242493 
	C168.200775,430.243591 166.642593,430.130066 165.225861,430.499451 
	C163.096054,431.054718 161.744690,433.025909 163.464279,434.569000 
	C168.888779,439.436829 173.264069,445.777893 182.020538,445.756042 
	C247.513336,445.592499 313.006714,445.654999 379.499939,445.646362 
z"/>
<path fill="#C89E2F" 
	d="
M629.000000,450.966003 
	C619.506409,450.985718 610.510742,450.891907 601.520325,451.068451 
	C597.761169,451.142242 594.725281,450.001465 592.064148,447.427643 
	C587.396057,442.912628 582.640198,438.488434 577.962341,433.983337 
	C576.020752,432.113434 573.972656,430.114166 575.266846,427.069580 
	C576.532532,424.092041 579.377075,424.718262 581.801941,424.717468 
	C650.255615,424.695160 718.709351,424.698883 787.163025,424.694550 
	C818.142090,424.692566 849.121155,424.680847 880.100220,424.680328 
	C881.931641,424.680267 883.764648,424.703339 885.593994,424.782928 
	C887.607849,424.870514 889.102661,425.833710 889.821167,427.741394 
	C890.487244,429.509460 889.943970,431.164490 888.544128,432.246521 
	C880.646606,438.350922 872.748047,444.459045 864.689392,450.346130 
	C862.623108,451.855621 859.821411,451.141998 857.344971,451.140533 
	C781.396667,451.094940 705.448303,451.026489 629.000000,450.966003 
M655.499939,445.643494 
	C719.647888,445.634735 783.797241,445.409515 847.942200,445.840149 
	C858.088074,445.908264 866.585022,444.188629 873.622620,436.812164 
	C873.735657,436.693695 873.898804,436.624725 874.024292,436.516144 
	C875.509155,435.231964 877.748962,434.066376 876.803833,431.757812 
	C875.991272,429.772949 873.653076,430.262665 871.874207,430.257111 
	C859.711426,430.219055 847.548523,430.239685 835.385620,430.234863 
	C753.742981,430.202545 672.100281,430.163513 590.457642,430.162537 
	C588.280029,430.162506 585.802307,429.534912 583.591431,432.346008 
	C586.691101,435.305817 589.829956,438.006409 592.609985,441.036194 
	C595.745605,444.453583 599.238892,445.882721 604.016602,445.797913 
	C620.840027,445.499329 637.671448,445.657013 655.499939,445.643494 
z"/>
<path fill="#C89E2F" 
	d="
M402.067627,352.627930 
	C402.051605,326.513947 401.985352,300.856293 401.989258,275.198669 
	C401.990509,267.110901 403.180847,265.967926 411.242065,265.892731 
	C417.739288,265.832092 424.237518,265.886200 430.734985,265.844635 
	C435.210632,265.816010 437.415100,267.693542 437.396698,272.459717 
	C437.291229,299.783356 437.576813,327.110413 437.256256,354.430756 
	C436.956879,379.946625 417.441772,397.116272 390.141357,396.506744 
	C384.639954,396.383942 379.155121,396.062744 373.811798,394.610779 
	C353.795319,389.171631 342.037842,373.877350 341.826355,352.181458 
	C341.569733,325.859314 341.702118,299.533142 341.717255,273.208710 
	C341.720703,267.211548 343.193451,265.772644 349.054199,265.750092 
	C355.884979,265.723816 362.717987,265.684082 369.546387,265.825226 
	C375.700836,265.952454 377.194305,267.484070 377.208008,273.651245 
	C377.264984,299.309204 377.225769,324.967438 377.290894,350.625336 
	C377.310181,358.223816 379.852539,362.029053 385.664520,363.722290 
	C394.496063,366.295197 400.696075,362.268616 402.067627,352.627930 
M371.765747,282.605743 
	C371.767059,281.439819 371.783844,280.273651 371.767212,279.107971 
	C371.671356,272.389801 370.565735,271.274292 363.879333,271.229828 
	C360.381989,271.206573 356.884216,271.251129 353.386688,271.245575 
	C349.340881,271.239166 347.261200,273.008057 347.272064,277.289429 
	C347.337494,303.103912 347.086395,328.921539 347.416840,354.732025 
	C347.574158,367.018768 352.270020,377.464600 363.077393,384.352936 
	C374.747559,391.791168 387.682861,392.137238 400.710022,390.168701 
	C413.864227,388.180939 423.930176,381.525665 429.231262,368.714325 
	C431.718658,362.702911 432.062134,356.445984 432.056091,350.097321 
	C432.035889,328.946686 431.968262,307.795990 432.013702,286.645477 
	C432.044373,272.379700 434.648376,270.717163 415.730835,271.472412 
	C409.331268,271.727936 407.585571,273.572327 407.445374,280.163086 
	C407.307343,286.651184 407.526489,293.148407 407.654297,299.640350 
	C408.011566,317.786255 408.512085,335.936432 407.310486,354.066650 
	C406.807434,361.656647 402.972443,366.300629 396.139618,368.314545 
	C382.369659,372.373077 372.007538,364.925140 371.885376,350.530151 
	C371.695984,328.213470 371.787079,305.894409 371.765747,282.605743 
z"/>
<path fill="#C89E2F" 
	d="
M740.213257,350.341309 
	C740.442139,364.220428 737.764648,363.643036 753.068420,363.613556 
	C758.900452,363.602325 764.734680,363.741669 770.563965,363.621338 
	C774.935425,363.531097 777.140076,365.490662 777.158875,369.828461 
	C777.187073,376.326691 777.156311,382.825195 777.138306,389.323547 
	C777.127502,393.201019 775.186157,395.188324 771.289001,395.183105 
	C751.125977,395.156158 730.962952,395.122223 710.799927,395.089203 
	C705.845642,395.081085 704.770630,391.975647 704.777344,387.779938 
	C704.807068,369.116608 704.732971,350.453125 704.759033,331.789764 
	C704.785828,312.626709 704.874390,293.463623 704.958618,274.300690 
	C704.990051,267.148621 706.270508,265.847534 713.434814,265.824554 
	C731.764832,265.765778 750.095032,265.730194 768.425171,265.737427 
	C775.729126,265.740326 777.083618,267.144104 777.110413,274.592529 
	C777.130249,280.090546 777.080872,285.589905 776.971863,291.086914 
	C776.883423,295.547028 774.700378,297.701569 770.052795,297.580963 
	C762.225525,297.377808 754.388977,297.544922 746.560974,297.359436 
	C741.899780,297.248993 739.948486,299.110260 740.121399,303.897736 
	C740.508850,314.626465 738.670959,314.080994 750.448730,314.037018 
	C755.781006,314.017120 761.115906,313.928375 766.445007,314.059448 
	C772.247009,314.202087 773.954651,315.906128 774.033447,321.554413 
	C774.112488,327.218323 774.010681,332.884827 773.979797,338.550140 
	C773.956360,342.863037 771.702332,345.003113 767.465881,345.036896 
	C760.134521,345.095367 752.801758,345.154755 745.471313,345.069122 
	C742.059326,345.029266 739.945740,346.070404 740.213257,350.341309 
M712.719727,388.943665 
	C714.358398,389.171143 715.996216,389.588531 717.635864,389.596130 
	C730.947510,389.657990 744.259583,389.671112 757.571411,389.643951 
	C772.330811,389.613831 772.221252,389.591614 771.801941,374.944550 
	C771.679749,370.675995 770.032227,369.041870 765.801208,369.032227 
	C757.312439,369.012848 748.821899,368.430206 740.336975,368.522888 
	C735.886292,368.571503 734.468384,366.896851 734.644348,362.633392 
	C734.884521,356.814545 734.791382,350.972198 734.593384,345.148376 
	C734.457764,341.159515 735.866455,339.475525 740.067322,339.521027 
	C747.553467,339.602112 755.046021,339.015961 762.533630,339.065033 
	C766.891174,339.093597 768.522217,337.048401 768.560059,333.068085 
	C768.572754,331.735626 768.612732,330.403015 768.601807,329.070801 
	C768.544250,322.064362 766.679443,320.114044 759.734192,320.053925 
	C753.072327,319.996246 746.408630,320.015076 739.747192,320.107178 
	C735.968506,320.159393 734.331909,318.634918 734.536133,314.690125 
	C734.828613,309.039398 734.911438,303.360260 734.705750,297.707031 
	C734.546509,293.330902 736.353821,291.784943 740.592834,291.850739 
	C748.584839,291.974762 756.581909,291.778992 764.576843,291.719543 
	C767.627441,291.696838 770.305298,290.984009 771.113586,287.562927 
	C771.967041,283.950653 772.040039,280.286774 770.926453,276.709534 
	C770.058533,273.921173 768.241699,272.123657 765.123596,272.110809 
	C749.165283,272.044952 733.222839,270.890656 717.244385,271.738129 
	C712.088928,272.011597 710.255737,274.102966 710.269714,279.102478 
	C710.366394,313.582184 710.308289,348.062286 710.329407,382.542267 
	C710.330688,384.667816 710.045349,386.943481 712.719727,388.943665 
z"/>
<path fill="#C89E2F" 
	d="
M188.553894,380.327332 
	C178.849487,345.286682 169.246826,310.640686 159.653854,275.992035 
	C159.255127,274.551849 158.832474,273.103180 158.619125,271.629761 
	C158.084106,267.934723 159.675903,265.772247 163.486572,265.744141 
	C171.816605,265.682648 180.147629,265.744507 188.478210,265.770325 
	C192.103790,265.781555 193.602097,267.786987 194.401627,271.220001 
	C198.513641,288.876007 202.832474,306.483856 207.097534,324.104065 
	C207.554306,325.991180 208.130661,327.849335 208.903381,330.625824 
	C212.229721,326.284454 212.497162,321.887177 213.512054,317.899139 
	C217.410538,302.580017 221.080307,287.200745 224.644699,271.799774 
	C225.626480,267.557831 227.649414,265.492401 232.180435,265.628998 
	C239.171967,265.839661 246.174622,265.671112 253.172546,265.681976 
	C261.712738,265.695221 263.048615,267.586853 260.573395,276.026215 
	C255.700577,292.640167 250.777328,309.239807 245.998535,325.880829 
	C240.024704,346.683167 234.051453,367.487488 228.362579,388.368500 
	C227.001892,393.362915 224.751266,395.676575 219.358505,395.366516 
	C212.549301,394.975006 205.692566,395.048370 198.872940,395.327179 
	C194.351624,395.512054 192.070496,393.501129 191.037415,389.393036 
	C190.306580,386.486816 189.455048,383.610931 188.553894,380.327332 
M206.945908,349.280487 
	C201.654007,326.253937 196.391357,303.220642 191.053818,280.204651 
	C189.258438,272.462738 187.585709,271.236633 179.678146,271.362061 
	C178.182297,271.385773 176.685455,271.538757 175.195221,271.692078 
	C166.693924,272.566559 165.030106,274.797485 167.255173,283.034760 
	C172.290222,301.674561 177.448975,320.281097 182.587158,338.892944 
	C186.751251,353.976318 191.006485,369.034729 195.112625,384.133789 
	C196.112396,387.810120 197.854279,389.985931 202.029053,389.788605 
	C206.352081,389.584290 210.718369,389.477020 215.020203,389.851013 
	C220.341171,390.313660 222.631607,388.054230 224.041397,382.993683 
	C233.061737,350.614380 242.371368,318.315643 251.601105,285.994751 
	C255.568909,272.100189 254.911041,271.223785 240.375381,271.331970 
	C232.735565,271.388824 230.306900,273.247223 228.501022,280.661102 
	C222.909332,303.617432 217.376968,326.588196 211.754761,349.537018 
	C211.223236,351.706665 211.249237,354.162811 209.357193,355.959717 
	C207.082718,354.491394 207.982452,351.944733 206.945908,349.280487 
z"/>
<path fill="#C89E2F" 
	d="
M788.629883,291.747375 
	C804.841797,265.962158 834.737915,259.516571 860.378418,268.052338 
	C865.542480,269.771484 867.843750,272.628174 867.474365,278.305145 
	C866.999634,285.600739 867.414795,292.950409 867.301208,300.274567 
	C867.211731,306.043335 864.126892,307.688995 859.216370,304.507263 
	C854.851257,301.678894 850.431519,299.195557 845.210571,298.253082 
	C832.311035,295.924622 822.820557,300.820190 818.354248,313.174438 
	C814.149780,324.804291 814.071289,336.753448 818.815247,348.301331 
	C825.088928,363.573212 839.141174,368.371704 853.663208,360.508789 
	C855.997070,359.245117 858.096863,357.554626 860.403320,356.233246 
	C863.914185,354.221771 866.773560,355.525421 867.272766,359.458740 
	C868.387939,368.246094 867.820068,377.066895 867.500000,385.874878 
	C867.352112,389.943359 864.211975,391.379639 861.111694,392.721588 
	C833.776550,404.553925 800.223267,393.349640 786.862671,366.744995 
	C774.397522,341.923431 775.210815,316.689148 788.629883,291.747375 
M790.243713,362.229706 
	C802.853577,387.261292 830.091003,395.733673 853.212341,389.503021 
	C861.216736,387.346008 861.752747,386.518951 861.759338,378.030609 
	C861.760925,376.032257 861.756775,374.033844 861.743225,372.035553 
	C861.687927,363.881470 861.150330,363.530609 853.536316,366.660889 
	C835.491028,374.079742 820.673889,367.856049 813.529602,349.783569 
	C808.838684,337.917267 808.327209,325.843689 812.004333,313.604645 
	C816.447815,298.814789 828.538879,290.309906 843.083374,291.863525 
	C847.420593,292.326843 851.444092,293.989563 855.512329,295.481262 
	C859.946960,297.107269 861.566345,296.212830 861.589539,291.614471 
	C861.660767,277.476532 863.778625,272.784393 845.238953,270.751709 
	C845.073730,270.733612 844.911621,270.684662 844.746338,270.670105 
	C824.300964,268.870819 807.573792,275.325439 795.158142,292.261810 
	C788.603516,301.202942 785.625366,311.231079 784.625488,321.953552 
	C783.361023,335.513428 784.002991,348.909058 790.243713,362.229706 
z"/>
<path fill="#C89E2F" 
	d="
M329.000122,488.395630 
	C295.695007,488.401703 262.889832,488.381592 230.084900,488.451996 
	C227.082550,488.458435 224.684753,487.638763 222.360153,485.712036 
	C216.594177,480.933014 210.580963,476.452515 204.809113,471.680328 
	C202.710632,469.945251 199.813675,468.109619 201.156067,464.730560 
	C202.449585,461.474457 205.667282,461.857300 208.505081,461.861938 
	C253.470718,461.935272 298.436340,462.035706 343.402008,462.072968 
	C370.547546,462.095459 397.693176,462.009186 424.838745,462.005554 
	C427.496277,462.005219 430.207703,461.956787 432.797302,462.444550 
	C435.826538,463.015137 437.553864,464.952576 436.347412,468.259277 
	C434.293976,473.887268 432.090912,479.460510 430.010620,485.078918 
	C428.710022,488.591553 425.767609,488.267242 422.929840,488.270782 
	C395.783752,488.304596 368.637695,488.339203 341.491608,488.374115 
	C337.494446,488.379272 333.497284,488.387360 329.000122,488.395630 
M275.500000,482.951752 
	C316.831909,482.965393 358.163818,482.982513 399.495728,482.989471 
	C406.828522,482.990723 414.163696,483.052368 421.493164,482.885315 
	C425.249634,482.799713 429.945343,475.906403 429.529358,470.715149 
	C429.129028,465.719421 424.874969,467.394867 422.118774,467.391266 
	C355.121185,467.303650 288.123444,467.325287 221.125732,467.334747 
	C219.460861,467.334991 217.786728,467.326782 216.134064,467.492981 
	C214.806641,467.626526 213.375656,467.961487 212.824005,469.366791 
	C212.215500,470.916931 213.462952,471.854401 214.432816,472.706390 
	C216.684509,474.684540 219.131180,476.449463 221.304581,478.506073 
	C224.767273,481.782623 228.633514,483.017303 233.504196,482.918488 
	C247.163620,482.641510 260.833954,482.901733 275.500000,482.951752 
z"/>
<path fill="#C89E2F" 
	d="
M651.000000,462.016266 
	C710.948669,461.960449 770.397339,461.900177 829.846008,461.867249 
	C832.333496,461.865875 834.893677,461.793091 837.292603,462.326355 
	C841.416870,463.243195 842.673706,467.006165 839.622620,469.761627 
	C832.581726,476.120483 825.064392,481.920685 817.283997,487.365540 
	C815.660095,488.501984 813.797180,488.345947 811.978394,488.346161 
	C748.199768,488.354553 684.421143,488.319275 620.642700,488.421387 
	C615.971619,488.428864 613.112610,486.926514 611.671265,482.383209 
	C610.314758,478.107361 608.415710,474.006195 606.973816,469.754150 
	C605.219788,464.581360 606.129028,463.009766 611.562073,462.540863 
	C624.520325,461.422424 637.521057,462.311371 651.000000,462.016266 
M646.500000,467.299011 
	C636.836609,467.304932 627.172974,467.278503 617.510010,467.344757 
	C615.631470,467.357635 613.312683,466.828278 612.884705,469.814789 
	C611.962524,476.250916 617.629028,482.890106 624.127808,482.885620 
	C685.272095,482.843353 746.416626,482.698639 807.560181,482.888855 
	C813.850281,482.908447 818.541504,480.809265 822.571777,476.587830 
	C824.650940,474.410065 829.126770,472.838531 827.949463,469.556885 
	C826.621216,465.854614 822.076355,467.451141 818.939209,467.444794 
	C761.792969,467.329346 704.646423,467.326477 646.500000,467.299011 
z"/>
<path fill="#C89E2F" 
	d="
M331.685547,341.419281 
	C335.898651,356.393097 339.993958,370.979950 344.058167,385.575500 
	C346.343597,393.782990 345.382629,395.099976 337.044861,395.137329 
	C330.045380,395.168671 323.043671,395.012146 316.046600,395.139435 
	C311.801208,395.216675 309.640198,393.290985 308.790161,389.220734 
	C307.939972,385.149628 306.620880,381.177917 305.716736,377.116058 
	C305.056580,374.150360 303.443329,372.997192 300.434723,373.101044 
	C295.606720,373.267670 290.766632,373.281830 285.937531,373.148193 
	C282.741302,373.059753 281.024841,374.354858 280.267456,377.468781 
	C279.245026,381.672241 277.855927,385.785492 276.787415,389.979095 
	C275.877441,393.550446 273.904602,395.308258 270.059662,395.232544 
	C262.729370,395.088165 255.393112,395.276459 248.061050,395.186310 
	C242.587677,395.119019 241.231018,393.360382 242.719604,387.958649 
	C250.505707,359.704590 258.402130,331.480957 266.215546,303.234406 
	C269.143860,292.648102 272.085968,282.062103 274.748993,271.407776 
	C275.835297,267.061493 278.112183,265.455841 282.537933,265.609436 
	C290.195312,265.875214 297.871277,265.806213 305.534088,265.636627 
	C309.596405,265.546722 311.471893,267.344666 312.499390,271.172180 
	C318.757812,294.485168 325.184296,317.753052 331.685547,341.419281 
M262.198853,337.582336 
	C260.414886,344.170441 258.665558,350.768188 256.838135,357.344208 
	C254.609772,365.363068 252.190842,373.331055 250.087128,381.381897 
	C248.183975,388.665161 249.061096,389.698792 256.333527,389.749695 
	C259.665771,389.773041 263.008636,389.575409 266.327972,389.780853 
	C269.658142,389.987000 271.623444,388.957092 272.380585,385.462830 
	C273.295685,381.239441 274.821198,377.148376 275.737976,372.925232 
	C276.530029,369.276520 278.182983,367.522919 282.185120,367.662354 
	C289.507782,367.917511 296.850494,367.886780 304.175354,367.664093 
	C307.683258,367.557434 309.363770,368.976990 310.094971,372.238403 
	C311.077698,376.621704 312.312134,380.948090 313.324036,385.325409 
	C314.078552,388.589600 315.875549,390.034332 319.335724,389.864685 
	C323.824005,389.644592 328.331512,389.846405 332.830048,389.799408 
	C339.035095,389.734558 339.442261,389.462677 337.825623,383.560913 
	C331.626068,360.928284 325.220154,338.352234 318.927338,315.745026 
	C315.268188,302.599396 311.626648,289.448364 308.089172,276.269684 
	C307.102997,272.595825 304.889282,271.083588 301.207062,271.168274 
	C296.543610,271.275482 291.863953,271.466827 287.214935,271.203735 
	C282.091125,270.913788 279.800323,273.347412 278.531738,278.061035 
	C273.256195,297.663574 267.748932,317.203766 262.198853,337.582336 
z"/>
<path fill="#C89E2F" 
	d="
M678.160156,329.000000 
	C678.128662,348.831818 678.109314,368.163666 678.063965,387.495453 
	C678.048645,394.039124 677.025635,395.093048 670.583740,395.141083 
	C663.917908,395.190796 657.251221,395.187775 650.585266,395.148804 
	C644.516113,395.113281 643.758606,394.283417 643.592163,388.181427 
	C642.847351,360.866516 643.068359,333.546265 643.109863,306.226959 
	C643.123108,297.532166 642.962463,297.369263 634.095154,297.373077 
	C630.928833,297.374451 627.762512,297.375122 624.596252,297.353088 
	C621.649719,297.332611 619.791077,295.976166 619.683716,292.909332 
	C619.444763,286.085724 619.229309,279.259369 619.155762,272.432495 
	C619.104431,267.663116 621.609680,265.699280 626.401062,265.721222 
	C649.565491,265.827423 672.730896,265.809601 695.895569,265.722534 
	C700.486389,265.705292 702.630798,267.395844 702.446716,272.223175 
	C702.199280,278.712952 702.308289,285.219482 702.387146,291.717346 
	C702.435547,295.709930 700.641113,297.519287 696.640625,297.431244 
	C692.477051,297.339600 688.308533,297.421265 684.143066,297.485840 
	C679.893005,297.551697 677.904541,299.438110 678.060791,304.003998 
	C678.339844,312.160950 678.153748,320.333801 678.160156,329.000000 
M625.201721,287.811279 
	C625.824280,290.835876 628.014465,291.735474 630.735291,291.788727 
	C634.895203,291.870209 639.059814,291.989166 643.216553,291.875854 
	C647.016968,291.772278 648.313171,293.326477 648.515869,297.195374 
	C649.387878,313.836395 648.922791,330.477997 648.887207,347.116760 
	C648.862000,358.928345 649.252380,370.743469 648.535278,382.557495 
	C648.164307,388.669220 649.428589,389.708466 655.677612,389.752533 
	C658.340881,389.771332 661.004395,389.749512 663.667786,389.743774 
	C672.764343,389.724152 672.759094,389.723755 672.760315,380.382538 
	C672.763794,354.414795 672.701538,328.446716 672.812073,302.479431 
	C672.857910,291.721924 671.091980,291.608643 683.722229,291.929443 
	C698.064148,292.293762 698.063538,292.142242 697.682800,277.911530 
	C697.563782,273.464966 695.700806,271.483673 691.446167,271.380798 
	C690.780701,271.364716 690.115417,271.319824 689.450073,271.320038 
	C669.719482,271.326202 649.988892,271.329163 630.258301,271.352966 
	C626.899353,271.357025 624.922974,272.779999 625.033875,276.463593 
	C625.139099,279.954773 625.063110,283.451447 625.201721,287.811279 
z"/>
<path fill="#C89E2F" 
	d="
M557.000000,265.799255 
	C564.162415,265.794708 570.825623,265.854370 577.486877,265.764282 
	C581.899841,265.704620 583.964905,267.950623 584.027405,272.142090 
	C584.124268,278.636230 584.126648,285.133087 584.065308,291.627838 
	C584.029846,295.381409 582.296265,297.545837 578.233215,297.441284 
	C574.408081,297.342834 570.577942,297.400482 566.750488,297.434509 
	C560.050842,297.494019 559.237305,298.268555 559.233154,304.888245 
	C559.215942,332.037964 559.240723,359.187683 559.225586,386.337402 
	C559.220947,394.561188 558.584290,395.180908 550.418579,395.194244 
	C544.255859,395.204315 538.092773,395.195343 531.930298,395.143066 
	C525.193848,395.085876 524.003174,394.022827 523.977966,387.319458 
	C523.879639,361.169678 523.873291,335.019562 523.834351,308.869568 
	C523.831665,307.037415 523.685303,305.188782 523.876709,303.376404 
	C524.347900,298.915344 522.009277,297.432068 518.007568,297.453400 
	C513.843872,297.475586 509.676453,297.322144 505.516785,297.447449 
	C501.054138,297.581818 499.054382,295.317383 498.996246,291.119293 
	C498.913239,285.124573 498.842255,279.124908 498.993408,273.133087 
	C499.143555,267.182220 500.629517,265.765533 506.531006,265.755524 
	C523.187256,265.727356 539.843689,265.779388 557.000000,265.799255 
M578.035767,289.332947 
	C579.249573,286.105164 578.735229,282.740295 578.734375,279.435486 
	C578.732544,272.642273 577.457397,271.382843 570.462219,271.360626 
	C552.976013,271.305145 535.489319,271.379883 518.003174,271.308685 
	C503.639801,271.250183 504.850189,271.420349 504.995758,285.461945 
	C505.039978,289.728912 507.477020,291.796356 511.658966,291.889465 
	C515.321655,291.971039 519.001465,292.253021 522.644714,292.010284 
	C527.660278,291.676056 529.237915,293.698975 529.207520,298.692902 
	C529.058411,323.172516 529.241150,347.654083 529.299805,372.134979 
	C529.309326,376.131317 529.286133,380.127716 529.275269,384.124084 
	C529.264832,387.988190 530.952637,389.989960 535.052856,389.807526 
	C538.709351,389.644806 542.379028,389.789703 546.042908,389.780121 
	C553.512573,389.760590 553.664368,389.646118 553.674988,382.303864 
	C553.712830,356.157745 553.713806,330.011597 553.743469,303.865448 
	C553.757080,291.869751 553.773438,291.997894 565.632996,291.918701 
	C569.655579,291.891876 574.025146,293.213928 578.035767,289.332947 
z"/>
<path fill="#C89E2F" 
	d="
M480.000000,395.095581 
	C471.343018,395.102600 463.185516,395.165497 455.029205,395.095093 
	C449.508545,395.047455 448.038910,393.758331 448.021210,388.399841 
	C447.893707,349.779602 447.885559,311.158997 447.754303,272.538757 
	C447.737427,267.568695 450.094604,265.683594 454.803589,265.756500 
	C461.294250,265.857056 467.788055,265.732483 474.279938,265.781219 
	C481.436127,265.834961 483.116730,267.443878 483.126160,274.651672 
	C483.161163,301.452820 483.134125,328.254059 483.088562,355.055206 
	C483.075592,362.680756 483.010498,362.680878 490.695251,362.694061 
	C497.520538,362.705750 504.347656,362.817352 511.170441,362.692169 
	C515.562134,362.611572 517.728943,364.663177 517.791626,368.914062 
	C517.887329,375.402161 517.892517,381.892792 517.835999,388.381470 
	C517.794128,393.190613 515.129395,395.105804 510.464355,395.066406 
	C500.477020,394.982086 490.488220,395.074615 480.000000,395.095581 
M457.028503,389.737976 
	C473.518341,389.740814 490.008453,389.692169 506.497803,389.783783 
	C510.468201,389.805847 512.957642,388.808105 512.680908,384.189209 
	C512.472107,380.703979 512.438477,377.180267 512.701477,373.701996 
	C513.015259,369.552612 511.237183,367.969391 507.231323,368.018829 
	C499.238586,368.117584 491.243011,367.977295 483.250000,368.063202 
	C479.389801,368.104675 477.637085,366.751526 477.481873,362.543671 
	C476.536102,336.900665 477.170166,311.253113 476.955261,285.609619 
	C476.849304,272.970764 480.387085,271.140259 462.943542,271.351959 
	C454.522186,271.454193 453.311523,272.499847 453.367493,280.806915 
	C453.456116,293.957214 454.057861,307.117645 453.706909,320.254150 
	C453.128510,341.904327 453.486298,363.551392 453.274109,385.198364 
	C453.253876,387.259979 453.433960,389.312042 457.028503,389.737976 
z"/>
<path fill="#C89E2F" 
	d="
M318.000000,526.070312 
	C304.838806,526.111755 292.176361,526.062500 279.517151,526.241089 
	C275.614502,526.296143 272.434784,525.174744 269.480865,522.660095 
	C264.282257,518.234558 258.864349,514.067444 253.633286,509.678833 
	C251.413193,507.816284 248.198105,506.073181 249.630829,502.456024 
	C250.920761,499.199341 254.247421,499.711304 257.045563,499.712341 
	C296.695343,499.727112 336.345154,499.770203 375.994934,499.792816 
	C390.488770,499.801086 404.982635,499.752869 419.476440,499.771820 
	C425.836334,499.780121 427.162292,501.081757 427.257263,507.293976 
	C427.313263,510.958191 427.331421,514.625549 427.247955,518.288757 
	C427.108734,524.398499 425.597107,526.030334 419.455505,526.060242 
	C400.964203,526.150330 382.472198,526.110168 363.980469,526.106812 
	C348.820312,526.104065 333.660156,526.081299 318.000000,526.070312 
M290.500000,504.965668 
	C283.008179,504.979187 275.516235,504.975128 268.024628,505.021088 
	C266.532593,505.030243 265.005737,505.067139 263.559784,505.385712 
	C261.860870,505.760010 261.006256,506.875183 261.695068,508.724487 
	C262.775543,511.625366 275.562561,520.646179 278.827850,520.695801 
	C283.321899,520.764099 287.817749,520.718323 292.312805,520.718140 
	C333.268158,520.716736 374.223480,520.723755 415.178802,520.684204 
	C417.105927,520.682373 419.765839,521.549622 420.777466,519.619446 
	C422.784790,515.789368 422.087006,511.438660 421.212860,507.437225 
	C420.500702,504.177216 417.230743,505.039459 414.864807,505.036224 
	C373.743256,504.979889 332.621613,504.976990 290.500000,504.965668 
z"/>
<path fill="#C89E2F" 
	d="
M640.000122,526.132629 
	C633.673706,526.121338 627.847229,526.096252 622.020813,526.104431 
	C617.934631,526.110168 615.844604,524.181335 615.870056,520.016418 
	C615.896484,515.688477 615.810242,511.359833 615.838867,507.031952 
	C615.878967,500.972504 617.077576,499.777527 623.206177,499.770599 
	C655.002258,499.734558 686.798340,499.720032 718.594421,499.698822 
	C741.234680,499.683746 763.874878,499.662292 786.515137,499.665283 
	C789.297607,499.665649 792.505127,499.084198 793.632385,502.696503 
	C794.729858,506.213348 791.857971,507.681976 789.684753,509.434479 
	C784.375244,513.716187 778.956116,517.871216 773.797668,522.327820 
	C770.423096,525.243347 766.746826,526.232971 762.357666,526.221497 
	C721.738647,526.114807 681.119324,526.143677 640.000122,526.132629 
M699.499939,520.684021 
	C720.142578,520.687195 740.785767,520.603455 761.427612,520.730225 
	C771.660889,520.793091 776.060547,512.617615 782.803284,507.484039 
	C780.435486,504.409027 777.909119,505.080475 775.714539,505.078033 
	C726.439331,505.023499 677.164001,505.019348 627.888733,505.052307 
	C621.510376,505.056580 621.107727,505.652618 621.149231,513.023193 
	C621.190796,520.409485 621.403992,520.696167 628.082031,520.700378 
	C651.554626,520.715210 675.027283,520.692444 699.499939,520.684021 
z"/>
<path fill="#C89E2F" 
	d="
M610.758545,563.446777 
	C606.718994,563.048096 605.859985,560.707275 606.883972,557.737793 
	C608.890625,551.918640 611.177002,546.194519 613.412354,540.456299 
	C614.251953,538.300903 616.087402,537.711670 618.254150,537.647522 
	C647.383972,536.784607 676.518005,537.115479 705.652466,537.245300 
	C717.302856,537.297180 728.954407,537.047607 740.605652,536.982422 
	C743.409607,536.966736 746.707581,536.524109 747.965576,539.818848 
	C749.315125,543.353394 746.478943,545.203369 744.127258,547.132690 
	C739.364563,551.040039 734.369690,554.728821 730.029175,559.066650 
	C726.272095,562.821472 722.192871,564.031860 717.043823,563.979980 
	C686.245361,563.669434 655.444641,563.574890 624.644714,563.421997 
	C620.148560,563.399658 615.651978,563.452454 610.758545,563.446777 
M702.499756,557.956665 
	C705.496033,557.960571 708.557800,557.565002 711.476379,558.043274 
	C720.280212,559.485596 726.912903,555.837158 732.654419,549.719238 
	C733.984802,548.301636 736.180725,547.145081 735.511536,544.848083 
	C734.765259,542.286316 732.218323,543.018982 730.369324,542.994080 
	C722.547424,542.888733 714.723267,542.965637 706.899902,542.952271 
	C680.267456,542.906738 653.633240,543.007019 627.003418,542.714661 
	C617.737000,542.612915 617.741882,542.165161 614.802856,550.339172 
	C612.468811,556.830444 613.202576,557.937317 620.102051,557.943420 
	C647.234680,557.967468 674.367310,557.955444 702.499756,557.956665 
z"/>
<path fill="#C89E2F" 
	d="
M403.000061,537.745972 
	C410.324341,537.743225 417.149719,537.814636 423.972382,537.708191 
	C427.287598,537.656494 429.216766,539.027527 430.240723,542.195312 
	C431.774902,546.941467 433.662811,551.572998 435.209351,556.315552 
	C437.107666,562.136963 435.859650,563.819641 429.571991,563.930054 
	C423.748566,564.032349 417.921570,563.925476 412.096161,563.921814 
	C389.792419,563.907776 367.488556,563.936401 345.184998,563.866028 
	C337.533569,563.841858 329.883331,563.501404 322.231689,563.455750 
	C319.364990,563.438660 317.123352,562.342651 315.025665,560.553284 
	C309.330383,555.695374 303.602997,550.874878 297.860535,546.072693 
	C295.970520,544.492126 294.428894,542.734741 295.313202,540.103638 
	C296.152893,537.605469 298.523560,537.353333 300.666931,537.209290 
	C308.655609,536.672607 316.626251,537.633484 324.603790,537.674072 
	C350.568634,537.806335 376.534546,537.737976 403.000061,537.745972 
M416.391937,542.993103 
	C382.733368,542.730957 349.070068,543.444397 315.413757,542.503906 
	C313.272003,542.444092 311.091980,542.820129 308.971466,543.216675 
	C307.137878,543.559570 306.057648,545.258484 307.418579,546.469543 
	C312.719360,551.186707 316.503296,558.122070 325.118195,558.095215 
	C357.948914,557.992798 390.780182,558.081848 423.611237,558.047302 
	C425.512604,558.045288 427.643097,558.590454 429.204346,556.890076 
	C427.832764,545.430054 425.813660,543.077576 416.391937,542.993103 
z"/>
<path fill="#C89E2F" 
	d="
M603.000000,356.234985 
	C596.178833,356.251007 589.857361,356.224823 583.536682,356.288605 
	C578.987061,356.334473 576.753723,354.103516 576.723328,349.618591 
	C576.686096,344.129517 576.713867,338.640015 576.678955,333.150909 
	C576.653198,329.091766 578.592896,326.856506 582.684631,326.837067 
	C596.324768,326.772308 609.965271,326.786163 623.605591,326.754486 
	C627.140076,326.746277 628.901062,328.793610 629.000000,332.002808 
	C629.189514,338.150391 629.125000,344.309723 629.010559,350.461273 
	C628.939453,354.280304 626.812134,356.197296 622.962646,356.196014 
	C616.475098,356.193848 609.987549,356.218140 603.000000,356.234985 
M623.354614,336.256805 
	C622.807678,332.920898 620.585022,332.151337 617.555847,332.186707 
	C609.903381,332.276093 602.249023,332.196198 594.595459,332.208130 
	C582.273438,332.227386 581.259705,333.429718 582.192993,345.715485 
	C582.461914,349.256348 583.934692,350.782684 587.473267,350.745941 
	C595.125854,350.666443 602.780029,350.758850 610.433594,350.755676 
	C623.739136,350.750183 623.739136,350.742157 623.354614,336.256805 
z"/>
<path fill="#C89E2F" 
	d="
M544.753479,576.851807 
	C541.343933,578.833130 538.482727,581.291687 533.952942,580.818054 
	C532.802979,567.756226 533.931335,554.761475 533.681152,541.772827 
	C540.353943,541.802612 548.124878,547.849182 550.690247,554.639404 
	C553.787903,562.838440 551.894775,570.212708 544.753479,576.851807 
M546.694702,560.729919 
	C545.944397,555.869507 544.263916,551.681702 538.829834,549.318542 
	C538.829834,557.756714 538.829834,565.418701 538.829834,573.891174 
	C544.655640,571.061340 546.547058,566.853149 546.694702,560.729919 
z"/>
<path fill="#C89E2F" 
	d="
M512.286133,469.032227 
	C512.287964,477.443146 512.287964,485.360779 512.287964,493.327332 
	C502.999603,492.451599 496.562225,484.722412 496.626953,475.293304 
	C496.690430,466.047699 503.201080,458.402283 511.702026,457.824371 
	C512.992920,461.313721 511.999115,464.973755 512.286133,469.032227 
M507.027222,479.136871 
	C506.848602,474.910370 507.525452,470.626190 506.521576,466.214630 
	C499.715332,471.385620 499.852203,480.331604 506.693390,484.514557 
	C506.804810,482.921814 506.907074,481.459778 507.027222,479.136871 
z"/>
<path fill="#C89E2F" 
	d="
M299.966003,330.245026 
	C300.934631,334.888794 301.673126,339.156921 302.668671,343.364227 
	C303.487823,346.825897 302.454468,348.432648 298.778381,348.323090 
	C294.615204,348.198944 290.446289,348.276642 286.280121,348.238007 
	C284.143890,348.218201 282.547729,347.434631 283.053253,344.963287 
	C286.006042,330.527222 289.030121,316.105743 292.030151,301.679321 
	C292.526764,301.653442 293.023407,301.627594 293.520020,301.601715 
	C295.629028,311.015503 297.738037,320.429291 299.966003,330.245026 
M291.497223,330.339172 
	C290.794952,333.421204 289.961578,336.480774 289.428070,339.591766 
	C288.916351,342.575867 291.042206,342.721863 293.210175,342.708313 
	C295.299408,342.695282 297.029846,342.237854 296.525482,339.627045 
	C295.685028,335.276794 294.688965,330.956635 293.732544,326.503235 
	C291.965790,327.289612 292.354553,328.744934 291.497223,330.339172 
z"/>
</svg>
